<svg width="22" height="23" viewBox="0 0 22 23" fill="none" xmlns="http://www.w3.org/2000/svg">
<g clip-path="url(#clip0)">
<path d="M10.842 0.958496C4.97146 0.958496 0.249512 5.68044 0.249512 11.551C0.249512 17.4215 4.97146 22.1434 10.842 22.1434C16.7125 22.1434 21.4345 17.4215 21.4345 11.551C21.4345 5.68044 16.6487 0.958496 10.842 0.958496ZM2.48286 5.61663C2.54667 5.68044 2.48286 5.68044 2.48286 5.61663C2.48286 5.68044 2.41905 5.74425 2.41905 5.74425C2.41905 5.74425 2.41905 5.74425 2.41905 5.80806C2.41905 5.80806 2.41905 5.80806 2.35524 5.80806C2.29143 5.80806 2.29143 5.80806 2.35524 5.87187C2.41905 5.99949 2.41905 5.99949 2.48286 5.93568C2.54667 5.93568 2.54667 5.87187 2.54667 5.87187C2.54667 5.80806 2.54667 5.74425 2.61048 5.68044C2.61048 5.61663 2.61048 5.61663 2.67429 5.61663C2.80191 5.61663 2.86572 5.55282 2.92953 5.48901C2.99335 5.48901 2.99335 5.4252 2.99335 5.4252C2.99335 5.36139 2.99335 5.36139 2.99335 5.36139C2.99335 5.36139 2.99335 5.36139 2.99335 5.29758C3.12097 5.23377 3.12097 5.10615 3.18478 4.97853C3.18478 4.91472 3.24859 4.91472 3.3124 4.91472H3.37621H3.44002C3.50383 4.85091 3.56764 4.91472 3.56764 4.97853L3.63145 5.04234C3.69526 5.04234 3.69526 5.04234 3.63145 5.10615C3.63145 5.10615 3.56764 5.16996 3.56764 5.23377C3.56764 5.29758 3.63145 5.36139 3.69526 5.29758C3.9505 5.29758 4.01431 5.23377 4.07812 5.16996C4.14193 5.16996 4.14193 5.16996 4.14193 5.16996C4.14193 5.23377 4.14193 5.29758 4.20574 5.36139C4.20574 5.36139 4.20574 5.36139 4.20574 5.4252C4.20574 5.4252 4.14193 5.48901 4.20574 5.48901C4.20574 5.55282 4.26955 5.61663 4.33336 5.61663C4.46098 5.68044 4.46098 5.74425 4.46098 5.87187V5.93568C4.46098 5.93568 4.39717 5.99949 4.39717 6.0633C4.33336 6.0633 4.39717 6.12711 4.39717 6.12711C4.39717 6.19092 4.46098 6.19092 4.52479 6.19092C4.5886 6.19092 4.5886 6.19092 4.5886 6.25473V6.31854C4.5886 6.38235 4.52479 6.44616 4.52479 6.44616C4.52479 6.44616 4.52479 6.38235 4.46098 6.44616C4.46098 6.38235 4.39717 6.44616 4.33336 6.44616C4.26955 6.44616 4.20574 6.44616 4.14193 6.44616C4.07812 6.44616 4.07812 6.44616 4.14193 6.38235L4.20574 6.31854C4.14193 6.19092 4.20574 6.12711 4.26955 6.0633C4.26955 6.0633 4.26955 6.0633 4.26955 5.99949C4.26955 5.99949 4.26955 5.99949 4.20574 5.99949C4.20574 5.99949 4.20574 5.99949 4.14193 5.99949C4.07812 6.12711 4.01431 6.12711 3.82288 6.12711C3.69526 6.12711 3.63145 6.12711 3.50383 6.12711H3.44002C3.44002 6.19092 3.24859 6.31854 3.24859 6.31854C3.3124 6.25473 3.37621 6.25473 3.44002 6.25473C3.44002 6.25473 3.44002 6.25473 3.50383 6.25473C3.56764 6.25473 3.56764 6.25473 3.56764 6.38235L3.50383 6.44616C3.50383 6.44616 3.44002 6.50997 3.50383 6.50997C3.50383 6.57378 3.56764 6.57378 3.63145 6.57378C3.69526 6.57378 3.75907 6.57378 3.82288 6.50997L3.88669 6.44616V6.50997C3.88669 6.57378 3.88669 6.57378 3.82288 6.57378C3.82288 6.57378 3.75907 6.57378 3.75907 6.63759C3.75907 6.63759 3.75907 6.63759 3.69526 6.63759C3.56764 6.7014 3.50383 6.7014 3.37621 6.76521H3.3124C3.3124 6.7014 3.3124 6.7014 3.3124 6.7014H3.24859C3.18478 6.7014 3.12097 6.7014 3.05716 6.76521C2.99335 6.76521 2.92954 6.82902 2.86572 6.89283C2.86572 6.89283 2.86572 6.89283 2.86572 6.95664C2.92954 7.02045 2.86573 7.02045 2.80191 7.02045C2.7381 7.02045 2.67429 7.08426 2.61048 7.08426C2.54667 7.08426 2.48286 7.14807 2.48286 7.21188L2.41905 7.27569C2.41905 7.3395 2.29143 7.40331 2.29143 7.46712C2.29143 7.53093 2.29143 7.59474 2.22762 7.65855C2.16381 7.78617 2.03619 7.78617 1.90857 7.91379C1.78095 7.9776 1.71714 8.10523 1.65333 8.16904C1.58952 8.23285 1.65333 8.23285 1.65333 8.29666C1.65333 8.36047 1.65333 8.36047 1.65333 8.42428C1.65333 8.48809 1.65333 8.61571 1.58952 8.67952C1.58952 8.74333 1.52571 8.74333 1.52571 8.67952C1.4619 8.61571 1.39809 8.48809 1.4619 8.42428C1.4619 8.36047 1.4619 8.29666 1.39809 8.23285H1.33428H1.27047C1.52571 7.27569 1.97238 6.44616 2.48286 5.61663ZM8.86387 5.99949C8.86387 6.0633 8.80006 6.0633 8.86387 5.99949C8.73625 6.0633 8.73625 6.0633 8.67244 6.0633C8.60863 6.0633 8.48101 6.0633 8.4172 6.12711C8.35339 6.12711 8.35339 6.12711 8.35339 6.12711H8.28958C8.28958 6.12711 8.28958 6.12711 8.35339 6.0633H8.4172V5.99949H8.35339C8.35339 5.99949 8.35339 5.99949 8.4172 5.93568C8.4172 5.93568 8.48101 5.93568 8.4172 5.87187C8.4172 5.87187 8.4172 5.80806 8.48101 5.80806C8.48101 5.80806 8.54482 5.80806 8.54482 5.74425C8.54482 5.68044 8.48101 5.68044 8.48101 5.68044C8.4172 5.68044 8.4172 5.68044 8.4172 5.61663C8.4172 5.61663 8.35339 5.61663 8.4172 5.55282C8.4172 5.48901 8.4172 5.4252 8.48101 5.36139C8.54482 5.29758 8.54482 5.29758 8.60863 5.29758C8.60863 5.29758 8.67244 5.29758 8.67244 5.23377C8.67244 5.23377 8.67244 5.23377 8.73625 5.23377C8.73625 5.23377 8.73625 5.29758 8.67244 5.29758C8.67244 5.29758 8.67244 5.29758 8.73625 5.29758H8.80006C8.80006 5.36139 8.80006 5.36139 8.73625 5.36139V5.4252C8.80006 5.48901 8.86387 5.61663 8.92768 5.68044C8.92768 5.68044 8.92768 5.74425 8.99149 5.74425C8.99149 5.74425 9.0553 5.74425 9.0553 5.80806C8.86387 5.93568 8.86387 5.93568 8.86387 5.99949C8.80006 5.99949 8.86387 5.99949 8.86387 5.99949ZM7.84291 3.5109C7.71529 3.5109 7.71529 3.57471 7.7791 3.63852C7.7791 3.70233 7.7791 3.70233 7.71529 3.70233C7.65148 3.70233 7.65148 3.76614 7.65148 3.82995C7.71529 3.89376 7.65148 3.89376 7.65148 3.89376C7.58767 3.95757 7.52386 3.95757 7.46005 4.02138C7.46005 4.02138 7.39624 4.08519 7.39624 4.149V4.21281C7.39624 4.27662 7.39624 4.27662 7.33243 4.27662C7.20481 4.27662 7.07719 4.34043 7.01338 4.34043C6.82195 4.40424 6.69433 4.46805 6.5029 4.59567C6.5029 4.59567 6.37528 4.59567 6.31147 4.65948C6.24766 4.65948 6.12004 4.65948 6.05623 4.72329C6.05623 4.72329 6.05623 4.72329 5.99242 4.7871C5.92861 4.91472 5.80099 4.97853 5.67337 5.16996C5.67337 5.23377 5.54575 5.23377 5.48194 5.16996C5.41813 5.10615 5.41813 5.10615 5.35432 5.10615C5.35432 5.10615 5.29051 5.10615 5.29051 5.04234C5.2267 4.97853 5.2267 4.85091 5.2267 4.72329C5.2267 4.65948 5.2267 4.59567 5.2267 4.53186C5.2267 4.40424 5.29051 4.34043 5.41813 4.27662C5.41813 4.27662 5.48194 4.27662 5.48194 4.21281C5.48194 4.21281 5.48194 4.21281 5.41813 4.21281C5.41813 4.21281 5.41813 4.21281 5.35432 4.21281H5.29051C5.29051 4.149 5.29051 4.149 5.35432 4.149C5.41813 4.149 5.41813 4.149 5.41813 4.149C5.41813 4.149 5.48194 4.149 5.41813 4.08519C5.41813 4.08519 5.41813 4.08519 5.35432 4.08519C5.35432 4.149 5.35432 4.149 5.35432 4.08519C5.35432 4.08519 5.35432 4.08519 5.35432 4.02138C5.41813 3.95757 5.41813 3.95757 5.41813 3.89376C5.41813 3.82995 5.41813 3.82995 5.35432 3.82995C5.29051 3.82995 5.2267 3.76614 5.09908 3.76614C4.97146 3.76614 4.90765 3.76614 4.78003 3.70233C4.78003 3.70233 4.71622 3.70233 4.71622 3.63852C4.71622 3.63852 4.65241 3.63852 4.65241 3.57471L4.71622 3.5109C4.84384 3.5109 4.90765 3.5109 5.03527 3.44709C5.09908 3.44709 5.09908 3.44709 5.16289 3.44709C5.2267 3.44709 5.2267 3.44709 5.16289 3.38328C5.09908 3.31947 5.16289 3.31947 5.16289 3.31947C5.29051 3.31947 5.35432 3.25566 5.48194 3.25566C5.73718 3.25566 5.99242 3.19185 6.18385 3.19185H6.24766C6.43909 3.25566 6.5029 3.25566 6.63052 3.25566C6.88576 3.25566 7.07719 3.25566 7.33243 3.25566C7.46005 3.25566 7.58767 3.31947 7.71529 3.31947C7.7791 3.31947 7.84291 3.31947 7.90672 3.38328H7.97053C8.09815 3.38328 8.22577 3.38328 8.22577 3.38328H8.28958C8.28958 3.38328 8.28958 3.38328 8.22577 3.38328C8.16196 3.38328 7.97053 3.5109 7.84291 3.5109ZM7.84291 4.65948C7.84291 4.65948 7.84291 4.72329 7.7791 4.7871C7.65148 4.85091 7.46005 4.85091 7.46005 4.85091C7.46005 4.85091 7.39624 4.85091 7.33243 4.85091C7.33243 4.7871 7.26862 4.7871 7.26862 4.72329H7.20481C7.141 4.72329 7.141 4.72329 7.20481 4.65948C7.26862 4.59567 7.33243 4.59567 7.39624 4.65948H7.46005C7.58767 4.65948 7.65148 4.65948 7.7791 4.59567C7.7791 4.59567 7.7791 4.65948 7.84291 4.65948ZM7.97053 5.93568C7.97053 5.87187 7.97053 5.87187 7.97053 5.93568C8.03434 5.87187 8.03434 5.87187 8.03434 5.87187C7.97053 5.87187 8.03434 5.80806 8.03434 5.74425H8.09815C8.09815 5.74425 8.09815 5.74425 8.09815 5.68044C8.09815 5.61663 8.28958 5.61663 8.28958 5.68044V5.74425C8.28958 5.74425 8.28958 5.80806 8.28958 5.87187C8.28958 5.93568 8.28958 5.99949 8.16196 5.99949C8.16196 5.99949 8.09815 5.99949 8.09815 6.0633C8.03434 6.0633 8.03434 6.12711 7.97053 6.0633C7.97053 5.99949 7.90672 5.99949 7.97053 5.93568C7.97053 5.93568 7.90672 5.93568 7.97053 5.93568ZM4.84384 3.31947C5.03527 3.31947 5.29051 3.31947 5.48194 3.31947C5.35432 3.31947 5.2267 3.38328 5.09908 3.38328H5.03527C4.90765 3.44709 4.71622 3.44709 4.5886 3.5109C4.52479 3.5109 4.46098 3.57471 4.33336 3.63852C4.52479 3.5109 4.65241 3.38328 4.84384 3.31947ZM3.9505 3.95757C4.01431 3.95757 4.01431 3.95757 3.9505 3.95757C4.07812 4.02138 4.07812 4.02138 4.14193 4.08519C4.14193 4.08519 4.20574 4.149 4.26955 4.149C4.33336 4.149 4.39717 4.21281 4.46098 4.21281C4.52479 4.21281 4.52479 4.27662 4.46098 4.34043C4.46098 4.34043 4.39717 4.34043 4.46098 4.40424C4.46098 4.40424 4.46098 4.46805 4.52479 4.46805C4.5886 4.46805 4.65241 4.53186 4.71622 4.59567C4.65241 4.59567 4.65241 4.65948 4.65241 4.65948C4.5886 4.65948 4.5886 4.65948 4.52479 4.72329H4.46098C4.46098 4.72329 4.46098 4.65948 4.39717 4.65948C4.39717 4.65948 4.33336 4.59567 4.33336 4.65948C4.26955 4.65948 4.26955 4.72329 4.33336 4.72329L4.39717 4.7871C4.39717 4.85091 4.46098 4.85091 4.39717 4.85091C4.39717 4.85091 4.39717 4.85091 4.33336 4.91472C4.33336 4.97853 4.26955 4.97853 4.26955 4.91472C4.14193 4.91472 4.07812 4.85091 4.07812 4.85091C4.07812 4.91472 4.07812 4.91472 4.07812 4.91472V4.97853C4.07812 4.97853 4.07812 4.97853 4.01431 4.97853C3.9505 4.97853 3.9505 4.97853 3.88669 4.91472C3.82288 4.91472 3.75907 4.85091 3.69526 4.7871C3.75907 4.7871 3.69526 4.7871 3.69526 4.72329H3.63145C3.63145 4.72329 3.56764 4.72329 3.56764 4.7871C3.50383 4.7871 3.44002 4.7871 3.44002 4.7871C3.44002 4.7871 3.44002 4.72329 3.50383 4.72329C3.56764 4.72329 3.56764 4.72329 3.63145 4.72329C3.69526 4.72329 3.69526 4.72329 3.75907 4.72329C3.75907 4.72329 3.82288 4.72329 3.82288 4.65948C3.82288 4.65948 3.82288 4.65948 3.88669 4.59567C3.9505 4.59567 3.9505 4.53186 4.01431 4.53186C4.07812 4.53186 4.07812 4.46805 4.07812 4.40424C4.07812 4.34043 4.01431 4.40424 4.01431 4.40424C4.01431 4.40424 3.9505 4.40424 3.9505 4.46805C3.9505 4.53186 3.88669 4.53186 3.88669 4.46805H3.82288C3.82288 4.46805 3.82288 4.40424 3.88669 4.40424H3.9505H4.01431C4.01431 4.40424 4.07812 4.40424 4.01431 4.34043C3.82288 4.34043 3.75907 4.27662 3.69526 4.27662C3.69526 4.27662 3.69526 4.27662 3.63145 4.27662C3.75907 4.21281 3.88669 4.08519 3.9505 3.95757ZM3.18478 4.7871C3.18478 4.85091 3.12097 4.85091 3.18478 4.7871C3.12097 4.85091 3.18478 4.7871 3.18478 4.7871ZM1.97238 9.38143C1.97238 9.38143 2.03619 9.38143 1.97238 9.38143C2.1 9.38143 2.1 9.38143 2.1 9.25381H2.16381H2.22762C2.35524 9.19 2.35524 9.25381 2.41905 9.31762C2.41905 9.31762 2.41905 9.31762 2.41905 9.38143C2.41905 9.38143 2.41905 9.38143 2.35524 9.38143C2.29143 9.38143 2.29143 9.38143 2.22762 9.38143C2.16381 9.38143 2.16381 9.38143 2.1 9.44524C2.1 9.44524 2.03619 9.50905 2.03619 9.44524H1.97238C2.03619 9.44524 2.03619 9.44524 1.97238 9.38143C1.97238 9.44524 1.97238 9.44524 1.97238 9.38143ZM1.84476 9.25381C1.78095 9.25381 1.78095 9.25381 1.71714 9.25381C1.65333 9.25381 1.65333 9.25381 1.65333 9.19C1.65333 9.12619 1.58952 9.06238 1.52571 8.99857C1.4619 8.99857 1.39809 8.93476 1.33428 8.93476C1.27047 8.93476 1.27047 8.93476 1.20666 8.93476L1.14285 8.99857C1.14285 8.99857 1.14285 9.06238 1.07904 8.99857V8.93476C1.07904 8.87095 1.20666 8.87095 1.27047 8.87095C1.39809 8.87095 1.52571 8.87095 1.65333 8.93476C1.71714 8.93476 1.71714 8.93476 1.78095 8.99857C1.84476 9.06238 1.90857 9.12619 1.97238 9.12619H2.03619C1.90857 9.25381 1.90857 9.25381 1.84476 9.25381ZM0.951423 9.63667C1.01523 9.63667 1.07904 9.70048 1.07904 9.70048V9.76429C1.07904 9.8281 1.01523 9.89191 1.01523 10.0195C0.951423 10.1471 1.07904 10.2748 1.20666 10.3386H1.27047C1.33428 10.2748 1.39809 10.2748 1.4619 10.2748C1.52571 10.2748 1.52571 10.2748 1.52571 10.3386C1.58952 10.4024 1.58952 10.4024 1.71714 10.3386L1.78095 10.2748C1.78095 10.211 1.84476 10.1471 1.90857 10.1471C1.97238 10.1471 2.03619 10.0833 2.1 10.0833C2.1 10.0833 2.1 10.0833 2.16381 10.0833C2.16381 10.0833 2.16381 10.0833 2.22762 10.0833C2.22762 10.0833 2.22762 10.0833 2.22762 10.1471C2.16381 10.0833 2.16381 10.0833 2.16381 10.1471V10.211V10.2748C2.16381 10.2748 2.16381 10.2748 2.16381 10.211C2.16381 10.1471 2.16381 10.1471 2.22762 10.1471C2.29143 10.1471 2.29143 10.0833 2.29143 10.0833C2.29143 10.0833 2.29143 10.0833 2.35524 10.0833C2.41905 10.1471 2.48286 10.211 2.61048 10.211C2.67429 10.211 2.7381 10.211 2.80191 10.2748H2.86572C2.92954 10.211 2.99335 10.211 2.99335 10.211C2.99335 10.211 3.05716 10.211 2.99335 10.211C2.99335 10.211 2.99335 10.211 3.05716 10.2748C3.12097 10.2748 3.12097 10.3386 3.12097 10.3386C3.12097 10.4024 3.18478 10.4024 3.24859 10.4024C3.3124 10.4024 3.3124 10.4662 3.3124 10.4662L3.37621 10.53C3.50383 10.5938 3.63145 10.6576 3.75907 10.6576C3.82288 10.6576 3.82288 10.6576 3.82288 10.6576C3.88669 10.6576 3.88669 10.7214 3.9505 10.7214C4.01431 10.7852 4.01431 10.7852 4.01431 10.8491C4.01431 10.9129 4.01431 10.9767 4.07812 10.9767V11.0405C4.07812 11.1043 4.07812 11.1043 4.14193 11.1043C4.20574 11.1043 4.20574 11.1681 4.20574 11.1681C4.20574 11.1681 4.20574 11.2319 4.26955 11.2319C4.33336 11.1681 4.39717 11.1681 4.39717 11.2319C4.39717 11.2319 4.46098 11.2319 4.46098 11.2957C4.52479 11.3595 4.52479 11.3595 4.52479 11.3595C4.52479 11.3595 4.52479 11.4233 4.5886 11.4233C4.5886 11.4233 4.5886 11.4233 4.65241 11.4233C4.71622 11.4233 4.84384 11.4233 4.90765 11.4233H4.97146C5.03527 11.4872 5.09908 11.551 5.2267 11.6148C5.29051 11.8062 5.29051 11.8062 5.35432 11.8062C5.41813 11.8062 5.41813 11.87 5.41813 11.87C5.41813 11.9338 5.41813 11.9338 5.41813 11.9976C5.41813 12.0614 5.41813 12.0615 5.41813 12.1253C5.35432 12.2529 5.29051 12.4443 5.16289 12.6357C5.16289 12.6357 5.09908 12.6996 5.16289 12.7634C5.16289 12.9548 5.16289 13.21 5.09908 13.4015C5.09908 13.5291 4.97146 13.6567 4.84384 13.6567C4.71622 13.7205 4.5886 13.7843 4.46098 13.8481C4.39717 13.8481 4.39717 13.9119 4.39717 13.9758C4.46098 14.1034 4.39717 14.231 4.33336 14.3586C4.33336 14.3586 4.33336 14.4224 4.26955 14.4224C4.20574 14.4224 4.20574 14.4224 4.20574 14.4862C4.20574 14.55 4.14193 14.6777 4.14193 14.7415C4.14193 14.8053 4.07812 14.8691 4.01431 14.8691C3.9505 14.8691 3.88669 14.8691 3.82288 14.8691C3.82288 14.8691 3.75907 14.8691 3.75907 14.8053V14.8691C3.75907 14.8691 3.75907 14.8691 3.82288 14.9329V14.9967C3.88669 15.0605 3.88669 15.1243 3.88669 15.1881C3.82288 15.3158 3.75907 15.3158 3.69526 15.3158C3.69526 15.3158 3.69526 15.3158 3.63145 15.3158C3.56764 15.3158 3.50383 15.3158 3.56764 15.4434C3.56764 15.5072 3.50383 15.571 3.44002 15.571C3.44002 15.571 3.37621 15.5072 3.37621 15.571C3.37621 15.6348 3.44002 15.6986 3.44002 15.6986C3.50383 15.6986 3.50383 15.6986 3.44002 15.7624C3.37621 15.8262 3.37621 15.8262 3.37621 15.8901C3.37621 15.9539 3.37621 15.9539 3.37621 15.9539C3.3124 16.0177 3.3124 16.0815 3.37621 16.1453L3.44002 16.2091C3.50383 16.2091 3.50383 16.2729 3.44002 16.2729C3.37621 16.3367 3.37621 16.4005 3.37621 16.4005C3.37621 16.4005 3.37621 16.4005 3.37621 16.4643C3.3124 16.5282 3.37621 16.592 3.37621 16.592C3.44002 16.7196 3.56764 16.7834 3.69526 16.8472C3.69526 16.8472 3.75907 16.8472 3.75907 16.911C3.75907 16.911 3.75907 16.9748 3.69526 16.9748C3.63145 16.911 3.63145 16.911 3.56764 16.911C3.50383 16.911 3.44002 16.911 3.44002 16.911C3.24859 16.911 3.05716 16.7196 2.92953 16.592C2.86572 16.4643 2.80191 16.3367 2.7381 16.2729V16.2091C2.80191 16.1453 2.7381 16.1453 2.7381 16.1453C2.67429 16.1453 2.67429 16.0815 2.67429 16.0177C2.67429 15.9539 2.67429 15.9539 2.67429 15.8901C2.67429 15.8901 2.67429 15.8262 2.7381 15.8262C2.80191 15.8262 2.80191 15.8262 2.80191 15.7624C2.80191 15.6986 2.80191 15.6986 2.80191 15.6348C2.80191 15.6348 2.80191 15.571 2.7381 15.6348C2.7381 15.6348 2.7381 15.6348 2.7381 15.6986V15.7624C2.67429 15.7624 2.67429 15.7624 2.67429 15.6986C2.61048 15.571 2.61048 15.5072 2.61048 15.3796C2.61048 15.3158 2.61048 15.3158 2.54667 15.252C2.54667 15.1881 2.48286 15.1881 2.54667 15.1243C2.54667 15.0605 2.54667 14.9329 2.54667 14.8691C2.54667 14.7415 2.54667 14.6139 2.48286 14.4862V14.4224C2.48286 14.231 2.48286 13.9758 2.48286 13.7843C2.48286 13.6567 2.41905 13.5291 2.41905 13.3377L2.35524 13.2738C2.22762 13.21 2.1 13.0824 1.97238 13.0186C1.90857 13.0186 1.90857 12.9548 1.90857 12.9548C1.78095 12.6996 1.58952 12.4443 1.4619 12.1891C1.39809 12.1253 1.39809 12.0615 1.33428 11.9338C1.33428 11.87 1.33428 11.87 1.39809 11.8062C1.4619 11.7424 1.4619 11.7424 1.39809 11.6786C1.33428 11.6148 1.33428 11.6148 1.39809 11.551C1.39809 11.4872 1.4619 11.4872 1.4619 11.4233C1.4619 11.3595 1.4619 11.3595 1.52571 11.2957L1.58952 11.2319C1.58952 11.2319 1.58952 11.1681 1.65333 11.1681C1.71714 11.1043 1.78095 11.0405 1.78095 10.9767C1.78095 10.9129 1.78095 10.9129 1.78095 10.8491C1.78095 10.7852 1.78095 10.7214 1.71714 10.6576V10.5938C1.71714 10.53 1.65333 10.53 1.65333 10.53C1.58952 10.53 1.58952 10.5938 1.58952 10.5938V10.6576H1.52571C1.4619 10.5938 1.39809 10.5938 1.33428 10.5938C1.33428 10.5938 1.33428 10.5938 1.27047 10.5938C1.20666 10.53 1.14285 10.4662 1.07904 10.4024C1.07904 10.4024 1.07904 10.4024 1.07904 10.3386C1.07904 10.2748 1.07904 10.2748 1.01523 10.211L0.951423 10.1471C0.951423 10.0195 1.01523 9.95572 1.01523 9.8281C0.887613 9.63667 0.887613 9.63667 0.951423 9.63667ZM12.5649 13.1462C12.501 13.0824 12.5649 13.0186 12.6287 12.891H12.6925C12.8201 12.8272 12.8839 12.7634 12.9477 12.6357C12.9477 12.5719 13.0115 12.5719 13.0753 12.5081H13.1391C13.203 12.5719 13.203 12.6357 13.203 12.6357C13.203 12.6357 13.203 12.6996 13.203 12.7634V12.8272C13.1391 12.8272 13.1391 12.891 13.1391 12.9548C13.1391 12.9548 13.1391 12.9548 13.1391 13.0186C13.0753 13.1462 13.0753 13.2738 13.0115 13.3377C12.9477 13.4653 12.9477 13.5929 12.8839 13.7205C12.8839 13.7843 12.7563 13.9119 12.6925 13.9119C12.6287 13.9119 12.501 13.8481 12.501 13.7205C12.501 13.6567 12.501 13.6567 12.501 13.5929C12.501 13.5291 12.501 13.5291 12.5649 13.4653C12.5649 13.4015 12.6287 13.2738 12.5649 13.1462ZM18.0525 11.3595C18.1163 11.3595 18.1163 11.4233 18.1801 11.4872C18.1801 11.551 18.244 11.551 18.244 11.551C18.3078 11.551 18.3078 11.551 18.244 11.6148C18.1801 11.6786 18.1801 11.7424 18.1801 11.8062C18.1801 11.87 18.1163 11.9338 18.0525 11.9338C17.9887 11.9338 17.9887 11.87 17.9249 11.87C17.7973 11.8062 17.7335 11.6786 17.7335 11.551C17.7335 11.4233 17.6697 11.3595 17.6059 11.2957C17.6059 11.2319 17.542 11.1681 17.4782 11.1681C17.4782 11.1681 17.4144 11.1681 17.4144 11.1043C17.4144 11.0405 17.3506 10.9767 17.2868 10.9129C17.2868 10.9129 17.223 10.9129 17.223 10.8491C17.223 10.8491 17.2868 10.7852 17.2868 10.8491C17.4144 10.9129 17.4782 10.9767 17.6059 10.9767L17.6697 11.0405C17.7335 11.1043 17.7973 11.1681 17.8611 11.2319C17.9249 11.2957 17.9887 11.2957 18.0525 11.3595C17.9887 11.3595 17.9887 11.3595 18.0525 11.3595ZM19.5202 9.76429C19.5202 9.8281 19.584 9.8281 19.584 9.8281C19.6478 9.8281 19.6478 9.8281 19.7116 9.8281C19.7754 9.8281 19.7754 9.89191 19.7754 9.89191V9.95572C19.8392 9.95572 19.903 10.0195 19.903 10.1471C19.903 10.211 19.903 10.211 19.9668 10.211C20.0306 10.2748 20.0306 10.2748 20.0306 10.3386C20.0306 10.4024 20.0306 10.4024 20.0306 10.4662C20.0306 10.53 20.0306 10.53 19.9668 10.53C19.903 10.53 19.9668 10.53 19.9668 10.5938V10.6576C19.9668 10.6576 19.903 10.6576 19.903 10.5938C19.8392 10.5938 19.8392 10.53 19.8392 10.4662V10.4024C19.7754 10.4024 19.7754 10.4024 19.7116 10.4024C19.7116 10.4024 19.7116 10.4024 19.7754 10.3386C19.7754 10.3386 19.7754 10.3386 19.7754 10.2748C19.7754 10.211 19.8392 10.211 19.8392 10.2748C19.903 10.2748 19.903 10.2748 19.9668 10.211V10.1471C19.9668 10.0833 19.9668 10.0833 19.903 10.0195C19.903 10.0195 19.903 9.95572 19.8392 10.0195C19.8392 10.0195 19.7754 10.0195 19.7754 10.0833C19.7754 10.0833 19.7754 10.0833 19.7754 10.1471C19.7754 10.1471 19.8392 10.211 19.7754 10.211L19.7116 10.2748C19.6478 10.2748 19.6478 10.2748 19.6478 10.211C19.6478 10.211 19.6478 10.211 19.6478 10.1471C19.584 10.1471 19.584 10.0833 19.584 10.0195C19.584 9.95572 19.584 9.95572 19.6478 10.0195L19.7116 10.0833H19.7754C19.7754 10.0833 19.7754 10.0833 19.7754 10.0195C19.7116 9.95572 19.7116 9.95572 19.6478 9.89191L19.584 9.8281C19.5202 9.8281 19.5202 9.8281 19.5202 9.89191C19.5202 9.89191 19.5202 9.89191 19.5202 9.95572C19.5202 9.89191 19.4563 9.89191 19.4563 9.8281V9.76429C19.3925 9.70048 19.3925 9.63667 19.3925 9.57286C19.3925 9.50905 19.3925 9.44524 19.3925 9.44524V9.38143L19.4563 9.31762C19.4563 9.31762 19.5202 9.31762 19.5202 9.38143C19.5202 9.44524 19.584 9.50905 19.5202 9.57286C19.5202 9.63667 19.5202 9.70048 19.5202 9.76429ZM21.0516 11.551C21.0516 11.6148 21.0516 11.7424 21.0516 11.8062C20.9878 11.7424 20.8602 11.7424 20.7964 11.6786H20.7325L20.6687 11.6148C20.6687 11.551 20.6049 11.551 20.6049 11.4872C20.6049 11.4872 20.6049 11.4872 20.5411 11.4872L20.4773 11.4233C20.4773 11.3595 20.5411 11.4233 20.5411 11.3595C20.6049 11.2957 20.6687 11.3595 20.7325 11.3595V11.4233C20.7325 11.4872 20.7325 11.4872 20.7964 11.551C20.7964 11.551 20.7964 11.6148 20.8602 11.6148C20.8602 11.6786 20.924 11.6786 20.9878 11.6148L21.0516 11.551C21.0516 11.551 21.0516 11.551 21.1154 11.551C21.0516 11.4872 21.0516 11.4872 21.0516 11.551ZM19.584 11.3595H19.6478C19.6478 11.3595 19.7116 11.2957 19.7754 11.3595C19.7754 11.3595 19.8392 11.3595 19.7754 11.4233L19.7116 11.4872C19.7116 11.4872 19.7116 11.4872 19.7116 11.551C19.7754 11.6148 19.7754 11.6786 19.8392 11.7424C19.8392 11.8062 19.8392 11.87 19.7754 11.87C19.7116 11.87 19.7116 11.87 19.7116 11.8062C19.7116 11.7424 19.6478 11.7424 19.6478 11.6786C19.6478 11.6786 19.6478 11.6148 19.584 11.6148V11.6786C19.584 11.7424 19.584 11.8062 19.584 11.87V11.9338H19.5202V11.87C19.5202 11.87 19.5202 11.87 19.5202 11.8062C19.5202 11.7424 19.5202 11.7424 19.5202 11.6786C19.4563 11.6148 19.5202 11.4872 19.5202 11.4233C19.5202 11.3595 19.5202 11.3595 19.5202 11.2957C19.5202 11.1681 19.584 11.1681 19.6478 11.1681C19.7116 11.1681 19.7116 11.1681 19.7754 11.1681C19.8392 11.1681 19.903 11.1681 19.9668 11.1043C19.9668 11.1043 19.9668 11.1043 20.0306 11.1043V11.1681C20.0306 11.2319 19.903 11.2957 19.8392 11.2319C19.7754 11.2319 19.7754 11.2319 19.7116 11.1681C19.6478 11.1681 19.584 11.1681 19.584 11.1681C19.5202 11.2957 19.5202 11.3595 19.584 11.3595ZM19.3925 8.87095C19.3925 8.87095 19.3925 8.93476 19.3287 8.99857C19.3287 8.99857 19.3287 8.99857 19.2649 8.99857C19.2011 8.93476 19.2011 8.74333 19.2649 8.67952H19.3287C19.3287 8.74333 19.3287 8.74333 19.3287 8.74333C19.3925 8.80714 19.3925 8.87095 19.3925 8.87095ZM19.3925 10.6576C19.4563 10.7214 19.4563 10.7214 19.3925 10.7852C19.3925 10.8491 19.3287 10.8491 19.3287 10.9129C19.3287 10.9767 19.3287 11.0405 19.3287 11.0405L19.3925 11.1043V11.1681C19.3287 11.1681 19.3287 11.2319 19.3287 11.2319C19.3287 11.2957 19.3287 11.3595 19.2649 11.4233C19.2011 11.4233 19.2011 11.4872 19.2649 11.551C19.2649 11.6148 19.2011 11.6786 19.2011 11.6786C19.2011 11.6786 19.1373 11.6786 19.0735 11.6786C19.0735 11.6786 19.0097 11.6786 18.9459 11.6148C18.8821 11.6148 18.8821 11.6148 18.8182 11.6148C18.7544 11.6148 18.6906 11.6148 18.6906 11.4872C18.6906 11.4233 18.6906 11.3595 18.6268 11.3595C18.563 11.2957 18.563 11.1681 18.6268 11.1043H18.6906C18.7544 11.1043 18.8182 11.1043 18.8182 11.0405C18.8182 10.9767 18.8821 10.9767 18.9459 10.9129C19.0097 10.9129 19.0097 10.9129 19.0097 10.8491C19.0735 10.7852 19.0735 10.7852 19.1373 10.7214C19.2011 10.6576 19.2649 10.5938 19.3287 10.53C19.3287 10.4662 19.3287 10.4662 19.3925 10.53C19.2649 10.5938 19.3287 10.6576 19.3925 10.6576ZM18.4992 9.31762C18.4992 9.38143 18.4354 9.38143 18.4992 9.31762C18.4354 9.38143 18.3716 9.38143 18.3716 9.38143C18.3716 9.31762 18.3716 9.31762 18.4354 9.25381C18.4992 9.25381 18.4992 9.19 18.563 9.25381C18.563 9.25381 18.4992 9.25381 18.4992 9.31762ZM18.6268 11.9338C18.6268 11.9338 18.6268 11.87 18.6268 11.9338C18.7544 11.9976 18.8182 11.9976 18.8821 11.9338H18.9459C18.9459 11.9338 18.9459 11.9338 18.9459 11.9976V12.0614C19.0097 12.0614 19.1373 12.1253 19.2011 12.1253C19.2649 12.1253 19.2649 12.1253 19.3287 12.1253C19.3925 12.1253 19.4563 12.1253 19.5202 12.1891C19.584 12.1891 19.6478 12.1891 19.6478 12.1891H19.7116C19.7754 12.2529 19.903 12.1891 19.9668 12.1891C20.0306 12.1891 20.0306 12.1891 20.0944 12.1891C19.9668 12.2529 19.903 12.3167 19.7754 12.3805C19.7754 12.3805 19.7754 12.3805 19.7754 12.3167C19.7754 12.3167 19.7754 12.3167 19.8392 12.2529C19.903 12.2529 19.903 12.1891 19.903 12.1891V12.1253C19.903 12.1253 19.8392 12.1253 19.7754 12.1891C19.7116 12.1891 19.6478 12.1891 19.6478 12.1891C19.584 12.1891 19.584 12.1891 19.5202 12.1891C19.4563 12.1891 19.3925 12.1891 19.3287 12.1891H19.2649C19.2011 12.1891 19.1373 12.2529 19.0735 12.1891C18.9459 12.1253 18.8182 12.1253 18.7544 12.1253C18.6268 12.1253 18.563 12.1253 18.4992 11.9976C18.4992 11.9338 18.4354 11.9338 18.3716 11.9338C18.3716 11.9338 18.3078 11.9338 18.3716 11.87C18.4354 11.8062 18.563 11.8062 18.6268 11.87C18.4354 11.9976 18.563 11.9976 18.6268 11.9338ZM20.4773 14.9329L20.4135 14.9967H20.3497C20.3497 14.9967 20.3497 14.9967 20.3497 14.9329C20.4135 14.9329 20.4135 14.9329 20.4773 14.9329C20.4773 14.8691 20.4773 14.8691 20.4773 14.8691C20.4773 14.8691 20.4773 14.8691 20.4773 14.9329ZM20.5411 14.8053C20.4773 14.8053 20.4773 14.8053 20.5411 14.8053C20.4773 14.8053 20.4773 14.8053 20.5411 14.8053C20.4773 14.8053 20.4773 14.8053 20.4773 14.8053L20.5411 14.6777C20.5411 14.6777 20.4773 14.7415 20.4135 14.8053C20.4135 14.8053 20.4135 14.8691 20.3497 14.8691C20.2859 14.8691 20.2859 14.8053 20.3497 14.8053V14.7415C20.2859 14.6777 20.2221 14.6139 20.0944 14.6139C19.9668 14.6139 19.903 14.6139 19.8392 14.6777C19.7116 14.6777 19.6478 14.6777 19.5202 14.7415C19.4563 14.7415 19.4563 14.8053 19.3925 14.8053C19.3287 14.8691 19.2649 14.8691 19.2649 14.8053C19.2011 14.8053 19.0735 14.8053 19.0097 14.8691C18.9459 14.8691 18.9459 14.9329 18.8821 14.9329C18.8182 14.9967 18.7544 14.9329 18.6906 14.9329C18.6268 14.9329 18.6268 14.8691 18.6906 14.8053C18.7544 14.7415 18.8182 14.6139 18.8182 14.4862C18.8182 14.4224 18.8182 14.4224 18.8182 14.3586C18.8182 14.3586 18.8182 14.3586 18.8182 14.2948C18.8182 14.1672 18.8182 14.1034 18.7544 13.9758C18.7544 13.9119 18.7544 13.9119 18.7544 13.9119C18.8182 13.9119 18.8182 13.8481 18.7544 13.8481C18.7544 13.7843 18.7544 13.7843 18.7544 13.7205C18.7544 13.7205 18.7544 13.6567 18.7544 13.5929C18.7544 13.5291 18.7544 13.4653 18.8182 13.5291C18.8182 13.5291 18.8182 13.5291 18.8821 13.5291C18.9459 13.4653 19.0097 13.4015 19.1373 13.4015C19.2649 13.4015 19.3925 13.3377 19.4563 13.2738C19.5202 13.21 19.584 13.1462 19.584 13.0824C19.584 13.0186 19.584 13.0186 19.6478 13.0186C19.6478 13.0186 19.6478 13.0186 19.7116 13.0186C19.7116 13.0824 19.7116 13.0186 19.7754 13.0186C19.8392 12.9548 19.903 12.9548 19.903 12.891C19.9668 12.891 19.9668 12.891 19.9668 12.8272C19.9668 12.7634 19.9668 12.7634 20.0306 12.7634C20.0944 12.7634 20.0944 12.7634 20.0944 12.8272C20.0944 12.8272 20.0944 12.891 20.1583 12.891C20.2221 12.891 20.2859 12.891 20.2859 12.8272C20.2859 12.7634 20.3497 12.6996 20.3497 12.6996C20.3497 12.6996 20.4135 12.6357 20.4773 12.6357C20.5411 12.6357 20.5411 12.6357 20.5411 12.5719V12.5081H20.6049C20.6687 12.5719 20.7325 12.5719 20.7964 12.6357C20.8602 12.6357 20.8602 12.6357 20.924 12.6357C20.9878 12.6357 20.9878 12.6357 20.9878 12.6996V12.7634C20.924 12.8272 20.924 12.891 20.8602 12.891V12.9548C20.924 13.0186 20.9878 13.0186 20.9878 13.0824C20.8602 13.5929 20.7325 14.231 20.5411 14.8053ZM19.8392 6.7014C19.8392 6.76521 19.8392 6.76521 19.8392 6.82902C19.8392 6.89283 19.7116 6.95664 19.6478 6.89283C19.584 6.89283 19.584 6.89283 19.5202 6.95664V7.02045C19.5202 7.08426 19.5202 7.14807 19.4563 7.14807C19.3925 7.14807 19.3925 7.21188 19.4563 7.21188C19.5202 7.27569 19.584 7.27569 19.6478 7.3395C19.7116 7.3395 19.7116 7.40331 19.7116 7.46712V7.53093C19.7116 7.59474 19.7754 7.59474 19.6478 7.65855C19.584 7.65855 19.584 7.72236 19.5202 7.72236C19.4563 7.72236 19.4563 7.72236 19.4563 7.65855C19.4563 7.59474 19.4563 7.53093 19.3925 7.53093C19.3925 7.53093 19.3925 7.53093 19.3925 7.46712C19.3925 7.40331 19.3925 7.40331 19.3287 7.40331C19.2649 7.40331 19.2011 7.3395 19.2011 7.27569C19.2011 7.21188 19.2011 7.21188 19.1373 7.21188C19.0735 7.21188 19.0097 7.21188 19.0097 7.21188C19.0097 7.21188 19.0097 7.21188 19.0097 7.27569C19.0097 7.27569 19.0097 7.27569 18.9459 7.27569C18.9459 7.27569 18.9459 7.27569 18.9459 7.21188C18.9459 7.14807 18.8821 7.14807 18.9459 7.08426V7.02045C18.9459 7.02045 18.9459 7.02045 18.8821 7.02045L18.8182 7.08426C18.8182 7.14807 18.7544 7.14807 18.6906 7.14807C18.6906 7.14807 18.6268 7.14807 18.6268 7.21188C18.6268 7.21188 18.6268 7.21188 18.6906 7.27569C18.7544 7.27569 18.7544 7.27569 18.8182 7.3395H18.8821C18.9459 7.27569 19.0097 7.3395 19.0735 7.3395C19.0097 7.3395 18.9459 7.46712 18.8821 7.53093V7.59474C19.0097 7.65855 19.0735 7.78617 19.1373 7.84998C19.1373 7.84998 19.1373 7.84998 19.1373 7.91379C19.2011 7.9776 19.2011 7.97761 19.1373 8.04142C19.1373 8.04142 19.1373 8.04142 19.2011 8.04142C19.2011 8.04142 19.2011 8.04142 19.2649 8.04142C19.2649 8.04142 19.2649 8.04141 19.2649 8.10522C19.2649 8.29666 19.2011 8.42428 19.1373 8.5519C19.1373 8.5519 19.1373 8.61571 19.0735 8.61571C19.0097 8.67952 18.9459 8.74333 18.9459 8.80714C18.8821 8.80714 18.8182 8.87095 18.7544 8.87095H18.6906H18.6268C18.563 8.87095 18.4992 8.93476 18.4992 8.99857V9.06238C18.4992 9.06238 18.4354 9.06238 18.4354 8.99857C18.4354 8.93476 18.3716 8.87095 18.3078 8.93476C18.244 8.99857 18.1801 9.06238 18.1163 9.12619C18.1163 9.19 18.1163 9.25381 18.1801 9.25381C18.244 9.31762 18.3078 9.38143 18.3716 9.44524C18.4992 9.57286 18.4992 9.70048 18.4992 9.8281C18.4992 9.95572 18.4354 9.95572 18.3716 10.0195C18.3078 10.0195 18.3078 10.0833 18.3078 10.0833C18.3078 10.1471 18.244 10.1471 18.1801 10.211C18.1801 10.211 18.1801 10.211 18.1163 10.211V10.1471C18.1163 10.0833 18.1163 10.0833 18.0525 10.0833C18.0525 10.0833 17.9887 10.0833 17.9887 10.0195C17.9249 9.95572 17.8611 9.89191 17.7973 9.8281C17.7335 9.8281 17.6697 9.8281 17.6697 9.70048C17.6697 9.70048 17.6697 9.70048 17.6059 9.70048C17.6059 9.76429 17.542 9.89191 17.542 9.95572C17.542 10.0195 17.542 10.0195 17.6059 10.0833C17.6697 10.1471 17.6697 10.1471 17.6697 10.211C17.6697 10.2748 17.6697 10.2748 17.7335 10.2748C17.8611 10.3386 17.9249 10.4024 17.9887 10.53C17.9887 10.53 18.0525 10.5938 17.9887 10.6576C17.9887 10.7214 17.9887 10.7214 17.9887 10.7852C17.9887 10.8491 18.0525 10.9129 18.0525 10.9767C18.0525 10.9767 18.0525 10.9767 18.0525 11.0405C18.0525 11.0405 18.0525 11.0405 17.9887 11.0405C17.9249 10.9129 17.7973 10.9129 17.7335 10.7852C17.6697 10.7214 17.6697 10.6576 17.6697 10.5938V10.53C17.6059 10.4662 17.6059 10.4024 17.542 10.3386L17.4782 10.2748C17.4144 10.2748 17.4782 10.2748 17.4144 10.211C17.4144 10.1471 17.4144 10.0833 17.4144 10.0195C17.4144 9.8281 17.4144 9.70048 17.3506 9.50905C17.3506 9.44524 17.2868 9.38143 17.2868 9.31762C17.2868 9.25381 17.223 9.25381 17.223 9.31762C17.1592 9.31762 17.1592 9.38143 17.0954 9.38143C17.0954 9.38143 17.0316 9.38143 16.9678 9.38143C16.9039 9.38143 16.9039 9.31762 16.9039 9.31762V9.25381C16.9039 9.19 16.9039 9.12619 16.8401 9.12619C16.8401 9.12619 16.7763 9.12619 16.8401 9.12619C16.8401 9.06238 16.8401 9.06238 16.7763 8.99857C16.7125 8.99857 16.7125 8.93476 16.6487 8.87095V8.80714C16.6487 8.74333 16.5849 8.74333 16.5849 8.80714C16.5211 8.80714 16.4573 8.87095 16.3935 8.80714C16.3297 8.80714 16.2658 8.80714 16.2658 8.87095C16.2658 8.93476 16.2658 8.99857 16.202 8.99857C16.202 8.99857 16.1382 8.99857 16.1382 9.06238C16.0744 9.12619 16.0106 9.19 15.9468 9.25381C15.9468 9.25381 15.883 9.25381 15.883 9.31762C15.8192 9.38143 15.8192 9.44524 15.7554 9.44524C15.7554 9.44524 15.6916 9.50905 15.7554 9.50905C15.7554 9.57286 15.7554 9.63667 15.7554 9.70048C15.7554 9.76429 15.7554 9.8281 15.7554 9.95572V10.0195C15.7554 10.0195 15.6916 10.0833 15.7554 10.0833H15.8192H15.883C15.9468 10.1471 15.9468 10.211 16.0106 10.2748C16.0106 10.3386 15.9468 10.4662 15.883 10.4662C15.8192 10.4662 15.8192 10.4662 15.8192 10.4024C15.8192 10.3386 15.8192 10.2748 15.8192 10.211C15.8192 10.1471 15.8192 10.1471 15.7554 10.0833C15.6916 10.0833 15.6916 10.0833 15.6916 10.1471C15.6916 10.1471 15.6916 10.211 15.6277 10.211C15.5639 10.211 15.5639 10.1471 15.5639 10.1471C15.5001 9.95572 15.4363 9.76429 15.3725 9.57286C15.3087 9.38143 15.2449 9.25381 15.1811 9.06238C15.1811 8.99857 15.1811 8.93476 15.1811 8.80714V8.74333C15.1811 8.74333 15.1811 8.74333 15.1811 8.80714C15.1811 8.87095 15.1173 8.93476 15.0535 8.87095C15.0535 8.87095 14.9896 8.87095 14.9896 8.80714C14.9258 8.74333 14.9258 8.74333 14.9258 8.74333V8.67952C14.862 8.61571 14.7344 8.61571 14.6706 8.48809C14.6068 8.42428 14.6068 8.42428 14.4792 8.42428C14.2877 8.42428 14.0325 8.42428 13.8411 8.36047C13.7772 8.36047 13.7772 8.36047 13.7134 8.29666C13.7134 8.23285 13.6496 8.23285 13.5858 8.23285C13.522 8.29666 13.4582 8.29666 13.3944 8.23285C13.3944 8.23285 13.3306 8.23285 13.3306 8.16904C13.2668 8.10523 13.203 8.10523 13.203 8.04142C13.203 7.97761 13.1391 7.9776 13.1391 7.91379C13.1391 7.84998 13.0115 7.84998 13.0115 7.84998C12.9477 7.91379 12.9477 7.97761 13.0115 8.04142C13.0753 8.10523 13.1391 8.16903 13.1391 8.23285V8.29666C13.1391 8.29666 13.203 8.36047 13.203 8.29666C13.203 8.23285 13.2668 8.23285 13.2668 8.29666C13.2668 8.36047 13.2668 8.36047 13.3306 8.42428C13.3306 8.48809 13.3306 8.48809 13.3944 8.48809C13.522 8.48809 13.5858 8.36047 13.6496 8.36047C13.6496 8.36047 13.6496 8.36047 13.7134 8.29666H13.7772V8.36047C13.7772 8.42428 13.8411 8.48809 13.9687 8.48809C14.0325 8.48809 14.0963 8.5519 14.0963 8.61571V8.67952C14.0963 8.74333 14.0325 8.74333 14.0325 8.80714C13.9687 8.80714 13.9687 8.87095 13.9687 8.87095C13.9687 8.93476 13.9687 8.93476 13.9049 8.93476C13.9049 8.93476 13.9049 8.93476 13.8411 8.99857C13.7772 9.06238 13.7134 9.06238 13.7134 9.12619C13.7134 9.19 13.5858 9.19 13.5858 9.19C13.522 9.19 13.522 9.19 13.522 9.25381C13.522 9.25381 13.522 9.31762 13.4582 9.31762C13.3944 9.38143 13.2668 9.38143 13.203 9.44524C13.1391 9.50905 13.0753 9.50905 13.0115 9.50905C13.0115 9.50905 12.9477 9.50905 12.9477 9.57286C12.9477 9.57286 12.8839 9.57286 12.8839 9.63667C12.7563 9.63667 12.7563 9.63667 12.6925 9.50905C12.6925 9.44524 12.6287 9.31762 12.5649 9.25381C12.5649 9.25381 12.5649 9.25381 12.5649 9.19C12.5649 9.19 12.5649 9.19 12.501 9.12619C12.4372 9.06238 12.4372 9.06238 12.3734 8.99857C12.3734 8.99857 12.3734 8.93476 12.3096 8.93476C12.182 8.87095 12.182 8.74333 12.1182 8.67952V8.61571C11.9906 8.48809 11.9906 8.36047 11.8629 8.23285L11.7991 8.16904C11.7991 8.10523 11.7353 8.10523 11.6715 8.16904C11.6715 8.16904 11.6715 8.16903 11.6715 8.23285C11.7353 8.42428 11.8629 8.61571 11.9906 8.80714C12.0544 8.87095 12.0544 8.93476 12.0544 8.99857C12.0544 9.06238 12.0544 9.06238 12.1182 9.12619C12.182 9.19 12.182 9.25381 12.2458 9.31762C12.2458 9.38143 12.3096 9.38143 12.3096 9.44524C12.4372 9.57286 12.5649 9.63667 12.6287 9.8281V9.89191C12.6287 9.95572 12.6925 10.0195 12.6925 10.0195H12.7563C12.8839 9.95572 13.0115 9.89191 13.203 9.95572H13.2668H13.3306V10.0195C13.3306 10.211 13.2668 10.3386 13.203 10.4662C13.1391 10.53 13.1391 10.5938 13.0753 10.6576C13.0115 10.7852 12.8839 10.9129 12.8201 10.9767C12.6925 11.0405 12.6287 11.1681 12.501 11.2957C12.3734 11.4233 12.3734 11.4872 12.3096 11.6148C12.3096 11.6786 12.3096 11.7424 12.3096 11.87C12.3096 11.9976 12.3734 12.1253 12.4372 12.2529C12.4372 12.3805 12.4372 12.5081 12.4372 12.5719C12.4372 12.5719 12.4372 12.5719 12.4372 12.6357C12.4372 12.7634 12.3734 12.8272 12.2458 12.891C12.182 12.891 12.1182 12.9548 12.0544 13.0186C11.9906 13.0824 11.9268 13.0824 11.9268 13.1462C11.7353 13.2738 11.7353 13.3377 11.7353 13.4015C11.7991 13.5291 11.7991 13.5929 11.7353 13.7205C11.7353 13.7843 11.7353 13.7843 11.6715 13.7843C11.5439 13.8481 11.4801 13.9119 11.4801 14.0396C11.4801 14.1034 11.4801 14.1672 11.3525 14.231C11.2887 14.2948 11.2248 14.3586 11.2248 14.4224C11.161 14.55 11.0334 14.6139 10.9696 14.6777L10.9058 14.7415C10.842 14.7415 10.842 14.7415 10.7782 14.7415C10.7144 14.8053 10.6506 14.8053 10.5867 14.7415C10.5229 14.7415 10.3953 14.7415 10.3315 14.8053C10.2677 14.8053 10.2039 14.8053 10.2039 14.7415V14.6777C10.2039 14.6777 10.1401 14.6139 10.2039 14.6139V14.55C10.1401 14.4224 10.0763 14.2948 10.0125 14.231C10.0125 14.1672 9.94864 14.1672 9.94864 14.1034C9.94864 14.0396 9.88483 13.9758 9.88483 13.9119C9.88483 13.7205 9.82102 13.5291 9.75721 13.4015C9.75721 13.3377 9.6934 13.3377 9.6934 13.2738C9.62959 13.0824 9.62959 12.891 9.6934 12.6996C9.75721 12.6357 9.75721 12.5081 9.82102 12.4443C9.82102 12.3805 9.82102 12.3167 9.75721 12.2529C9.75721 12.1891 9.75721 12.1891 9.75721 12.1253V12.0614C9.6934 11.9338 9.6934 11.8062 9.62959 11.6786C9.56578 11.551 9.50197 11.4872 9.43816 11.3595C9.37435 11.2957 9.37435 11.2319 9.43816 11.1681C9.50197 11.0405 9.50197 10.9767 9.50197 10.8491C9.50197 10.7852 9.37435 10.7214 9.37435 10.7214C9.31054 10.7214 9.31054 10.7214 9.24673 10.7214C9.18292 10.7214 9.18292 10.7214 9.11911 10.6576C9.0553 10.53 8.99149 10.53 8.86387 10.53C8.73625 10.53 8.67244 10.5938 8.54482 10.6576C8.54482 10.6576 8.48101 10.6576 8.48101 10.7214C8.4172 10.7214 8.4172 10.7214 8.35339 10.7214C8.22577 10.6576 8.09815 10.6576 7.97053 10.7852C7.90672 10.7852 7.90672 10.7852 7.84291 10.7852C7.71529 10.7214 7.58767 10.6576 7.52386 10.53C7.46005 10.4662 7.46005 10.4662 7.46005 10.4024C7.39624 10.2748 7.33243 10.1471 7.20481 10.0833C7.141 10.0195 7.141 9.95572 7.141 9.89191C7.141 9.8281 7.141 9.76429 7.07719 9.76429V9.70048C7.141 9.57286 7.20481 9.44524 7.141 9.25381C7.20481 9.19 7.141 9.19 7.141 9.12619C7.07719 9.06238 7.141 9.06238 7.141 8.99857C7.20481 8.93476 7.20481 8.87095 7.20481 8.80714C7.20481 8.74333 7.26862 8.74333 7.26862 8.74333C7.26862 8.74333 7.33243 8.74333 7.33243 8.67952C7.33243 8.61571 7.39624 8.5519 7.39624 8.5519C7.46005 8.48809 7.46005 8.48809 7.46005 8.42428C7.46005 8.42428 7.46005 8.36047 7.52386 8.36047C7.58767 8.36047 7.58767 8.29666 7.65148 8.29666C7.71529 8.23285 7.7791 8.16904 7.7791 8.04142C7.7791 7.97761 7.84291 7.91379 7.90672 7.84998L7.97053 7.78617C8.03434 7.72236 8.09815 7.65855 8.16196 7.59474C8.16196 7.59474 8.16196 7.59474 8.16196 7.53093C8.16196 7.53093 8.16196 7.46712 8.09815 7.46712C8.03434 7.40331 8.03434 7.40331 7.97053 7.40331C7.90672 7.40331 7.90672 7.40331 7.90672 7.3395V7.27569C7.90672 7.21188 7.90672 7.14807 7.90672 7.14807C7.97053 7.08426 7.97053 6.95664 7.97053 6.89283V6.82902C8.03434 6.82902 8.03434 6.76521 8.09815 6.76521H8.16196C8.28958 6.76521 8.35339 6.76521 8.48101 6.76521C8.54482 6.76521 8.54482 6.76521 8.60863 6.7014C8.67244 6.57378 8.54482 6.38235 8.4172 6.38235C8.4172 6.38235 8.35339 6.38235 8.35339 6.31854C8.35339 6.25473 8.4172 6.25473 8.4172 6.25473C8.48101 6.25473 8.48101 6.25473 8.54482 6.25473C8.54482 6.25473 8.54482 6.25473 8.60863 6.25473C8.60863 6.25473 8.60863 6.25473 8.60863 6.19092C8.60863 6.19092 8.60863 6.12711 8.67244 6.19092C8.67244 6.19092 8.80006 6.25473 8.86387 6.12711C8.86387 6.12711 8.86387 6.12711 8.92768 6.12711C8.99149 6.12711 8.99149 6.12711 9.0553 6.0633C9.11911 6.0633 9.11911 5.99949 9.11911 5.93568C9.11911 5.87187 9.11911 5.87187 9.18292 5.87187C9.24673 5.87187 9.31054 5.87187 9.31054 5.80806H9.37435C9.43816 5.80806 9.43816 5.74425 9.43816 5.74425C9.43816 5.74425 9.43816 5.68044 9.37435 5.68044C9.31054 5.55282 9.37435 5.48901 9.50197 5.48901H9.56578C9.56578 5.55282 9.56578 5.61663 9.56578 5.61663L9.62959 5.68044C9.62959 5.68044 9.62959 5.68044 9.6934 5.68044C9.75721 5.68044 9.75721 5.61663 9.75721 5.61663C9.75721 5.55282 9.6934 5.48901 9.62959 5.4252C9.62959 5.4252 9.62959 5.4252 9.56578 5.4252C9.50197 5.4252 9.50197 5.48901 9.43816 5.48901C9.37435 5.55282 9.24673 5.55282 9.18292 5.48901C9.18292 5.4252 9.18292 5.36139 9.18292 5.36139C9.18292 5.23377 9.18292 5.16996 9.31054 5.10615C9.37435 5.10615 9.43816 5.04234 9.50197 5.10615L9.56578 5.04234C9.56578 4.97853 9.62959 4.85091 9.6934 4.85091L9.75721 4.7871C9.75721 4.7871 9.82102 4.72329 9.75721 4.72329C9.75721 4.72329 9.75721 4.72329 9.82102 4.65948C9.82102 4.65948 10.0763 4.53186 10.2677 4.53186C10.3315 4.53186 10.4591 4.46805 10.5229 4.53186H10.5867C10.6506 4.46805 10.7144 4.53186 10.842 4.53186C10.842 4.59567 10.842 4.59567 10.9058 4.59567C10.9696 4.59567 11.0334 4.59567 11.0334 4.59567C11.2248 4.65948 11.3525 4.65948 11.5439 4.72329C11.5439 4.72329 11.6077 4.72329 11.6077 4.7871C11.6077 4.85091 11.6077 4.85091 11.5439 4.85091C11.4163 4.91472 11.3525 4.85091 11.2248 4.85091C11.161 4.85091 11.161 4.85091 11.161 4.85091H11.0972C11.161 4.85091 11.161 4.85091 11.161 4.91472C11.161 4.97853 11.161 4.97853 11.2248 4.97853C11.2887 4.97853 11.2887 5.04234 11.3525 5.04234H11.4163C11.4163 5.04234 11.4163 5.04234 11.4163 4.97853C11.4163 4.97853 11.3525 4.97853 11.3525 4.91472C11.3525 4.85091 11.4163 4.91472 11.4163 4.91472H11.4801C11.4801 4.91472 11.4801 4.91472 11.5439 4.91472C11.5439 4.91472 11.5439 4.91472 11.5439 4.85091V4.7871C11.5439 4.7871 11.6077 4.7871 11.6077 4.72329C11.6715 4.72329 11.6715 4.65948 11.7353 4.72329H11.7991C11.7991 4.72329 11.7991 4.72329 11.7991 4.65948C11.7353 4.59567 11.7991 4.53186 11.7353 4.53186C11.7353 4.53186 11.8629 4.53186 11.9268 4.53186V4.59567C11.8629 4.65948 11.9268 4.65948 11.9268 4.65948H11.9906C12.1182 4.59567 12.2458 4.53186 12.3096 4.53186C12.3096 4.53186 12.3734 4.53186 12.3734 4.59567C12.3734 4.59567 12.3734 4.59567 12.4372 4.59567C12.501 4.53186 12.6287 4.59567 12.6925 4.53186H12.7563C12.7563 4.53186 12.7563 4.53186 12.8201 4.53186C12.8201 4.53186 12.8201 4.53186 12.8201 4.46805C12.7563 4.46805 12.7563 4.46805 12.6925 4.40424C12.6925 4.40424 12.6287 4.40424 12.6925 4.34043C12.6925 4.34043 12.6925 4.34043 12.7563 4.34043C12.8201 4.40424 12.8839 4.40424 12.9477 4.40424C13.0753 4.40424 13.203 4.46805 13.3306 4.53186C13.3306 4.53186 13.3944 4.59567 13.3944 4.53186C13.3944 4.46805 13.3944 4.46805 13.3306 4.46805H13.2668C13.203 4.46805 13.203 4.46805 13.203 4.40424V4.34043C13.203 4.34043 13.1391 4.27662 13.203 4.27662C13.203 4.27662 13.203 4.27662 13.203 4.21281V4.149C13.203 4.08519 13.2668 4.08519 13.3306 4.149H13.3944C13.4582 4.149 13.4582 4.149 13.4582 4.21281C13.4582 4.27662 13.4582 4.27662 13.522 4.27662C13.522 4.27662 13.522 4.27662 13.5858 4.34043C13.5858 4.40424 13.6496 4.46805 13.7134 4.46805C13.7772 4.53186 13.7772 4.59567 13.7134 4.59567C13.7134 4.59567 13.7134 4.59567 13.7772 4.59567C13.8411 4.59567 13.8411 4.59567 13.9049 4.53186C13.9049 4.46805 13.9687 4.46805 13.9049 4.40424C13.9049 4.40424 13.9049 4.40424 13.9049 4.34043C13.9049 4.34043 13.9049 4.34043 13.9687 4.34043H14.0325H13.9687C13.9049 4.40424 13.8411 4.34043 13.8411 4.27662C13.8411 4.21281 13.8411 4.21281 13.7772 4.21281C13.7134 4.21281 13.7134 4.149 13.7772 4.149C13.8411 4.149 13.7772 4.08519 13.7772 4.08519C13.7772 4.08519 13.7772 4.08519 13.7772 4.02138H13.8411C13.8411 4.02138 13.8411 4.08519 13.9049 4.08519C13.9049 4.149 13.9687 4.149 14.0325 4.149H14.0963C14.0963 4.149 14.0963 4.149 14.0325 4.149C14.0325 4.149 13.9687 4.149 13.9687 4.08519C13.9687 4.08519 13.9687 4.02138 14.0325 4.02138C14.0963 4.02138 14.1601 4.02138 14.2239 4.08519H14.2877C14.2239 4.08519 14.1601 4.02138 14.0963 4.02138H14.1601C14.2239 4.02138 14.2877 4.02138 14.3515 4.02138C14.3515 4.02138 14.3515 4.02138 14.4154 4.02138C14.3515 4.02138 14.4154 3.95757 14.4154 3.95757C14.4792 3.95757 14.543 3.95757 14.6068 3.89376C14.7344 3.82995 14.862 3.82995 15.0535 3.82995C15.1173 3.82995 15.1811 3.82995 15.1811 3.76614C15.2449 3.70233 15.3725 3.76614 15.4363 3.76614C15.4363 3.76614 15.4363 3.76614 15.5001 3.76614C15.5001 3.82995 15.5639 3.82995 15.6277 3.82995C15.7554 3.82995 15.883 3.82995 16.0106 3.89376C16.0744 3.89376 16.0744 3.89376 16.0744 3.95757C16.0744 4.02138 16.0744 4.02138 16.0106 4.02138C15.9468 4.08519 15.883 4.08519 15.883 4.08519C15.883 4.08519 15.9468 4.08519 16.0106 4.02138C16.0744 3.95757 16.1382 3.95757 16.1382 4.02138C16.202 4.08519 16.202 4.08519 16.2658 4.08519C16.3935 4.08519 16.5211 4.08519 16.5849 4.149C16.6487 4.149 16.7125 4.149 16.7763 4.149C16.7763 4.149 16.8401 4.149 16.7763 4.149C16.7125 4.08519 16.7763 4.08519 16.7763 4.08519C16.8401 4.08519 16.9039 4.08519 16.9678 4.08519C17.0954 4.08519 17.1592 4.149 17.2868 4.21281C17.1592 4.149 17.223 4.149 17.2868 4.21281C17.3506 4.21281 17.3506 4.21281 17.3506 4.149C17.3506 4.08519 17.3506 4.08519 17.4144 4.149C17.4144 4.149 17.4144 4.149 17.4782 4.149C17.6059 4.149 17.7973 4.149 17.7973 4.149V4.08519C17.7973 4.08519 17.7973 4.08519 17.7973 4.02138C18.563 4.7871 19.2649 5.68044 19.8392 6.7014Z" fill="white"/>
</g>
<defs>
<clipPath id="clip0">
<rect width="21.1849" height="21.1849" fill="white" transform="translate(0.25 0.958496)"/>
</clipPath>
</defs>
</svg>
