<svg width="75" height="75" viewBox="0 0 75 75" fill="none" xmlns="http://www.w3.org/2000/svg">
<g clip-path="url(#clip0)">
<path d="M37.3333 0.905762C25.2948 0.905762 18.8834 10.7273 18.8834 17.8181C18.8834 21.8372 21.2789 28.5806 37.3333 28.5806C53.3877 28.5806 55.7832 21.8372 55.7832 17.8181C55.7833 9.68488 48.7293 0.905762 37.3333 0.905762ZM37.3333 25.5057C31.5924 25.5057 21.9584 24.5063 21.9584 17.8183C21.9584 12.0158 27.2996 3.98084 37.3333 3.98084C47.8221 3.98084 52.7083 12.2372 52.7083 17.8183C52.7083 24.5062 43.0744 25.5057 37.3333 25.5057Z" fill="white"/>
<path d="M57.6112 29.9151C57.2083 29.5892 56.6733 29.4846 56.1906 29.6353C52.0424 30.8992 44.9915 31.6556 37.3348 31.6556C29.6658 31.6556 22.6118 30.8992 18.4698 29.6323C17.6458 29.374 16.7971 29.8415 16.548 30.6501C16.4712 30.9146 16.4619 31.1851 16.5173 31.4342C19.0018 57.3255 27.3596 74.7052 37.3348 74.7052C47.3377 74.7052 55.7109 57.2424 58.1709 31.2496C58.217 30.7392 58.008 30.238 57.6112 29.9151ZM37.3348 71.6303C29.5213 71.6303 22.2612 55.5759 19.7859 33.15C24.2508 34.1525 30.5883 34.7305 37.3348 34.7305C44.0782 34.7305 50.4158 34.1524 54.8837 33.15C52.4085 55.5789 45.1515 71.6303 37.3348 71.6303Z" fill="white"/>
<path d="M18.7158 29.7333L18.7035 29.7271C17.9471 29.3489 17.0276 29.6595 16.6463 30.4159C16.2681 31.1754 16.5818 32.1041 17.3412 32.4823C17.5657 32.593 17.7995 32.6454 18.0301 32.6454C18.5898 32.6454 19.1341 32.3347 19.4046 31.7967C19.7827 31.037 19.4752 30.1146 18.7158 29.7333Z" fill="white"/>
<path d="M26.5696 40.8812C27.4188 40.8812 28.1072 40.1928 28.1072 39.3437C28.1072 38.4945 27.4188 37.8062 26.5696 37.8062C25.7205 37.8062 25.0321 38.4945 25.0321 39.3437C25.0321 40.1928 25.7205 40.8812 26.5696 40.8812Z" fill="white"/>
<path d="M32.7202 40.8812C33.5693 40.8812 34.2577 40.1928 34.2577 39.3437C34.2577 38.4945 33.5693 37.8062 32.7202 37.8062C31.871 37.8062 31.1826 38.4945 31.1826 39.3437C31.1826 40.1928 31.871 40.8812 32.7202 40.8812Z" fill="white"/>
<path d="M38.8708 40.8812C39.72 40.8812 40.4083 40.1928 40.4083 39.3437C40.4083 38.4945 39.72 37.8062 38.8708 37.8062C38.0216 37.8062 37.3333 38.4945 37.3333 39.3437C37.3333 40.1928 38.0216 40.8812 38.8708 40.8812Z" fill="white"/>
<path d="M33.8234 16.7449C32.4704 15.3581 30.9944 14.7031 29.4293 14.7553C27.0616 14.8598 25.5426 16.6434 25.3766 16.8464C24.8415 17.5044 24.94 18.473 25.601 19.0112C25.8839 19.2418 26.2283 19.3555 26.5696 19.3555C27.0154 19.3555 27.4582 19.1618 27.7627 18.7898C27.7689 18.7806 28.5683 17.8703 29.5645 17.8274C30.2349 17.8089 30.9022 18.1564 31.6187 18.8882C32.2091 19.5001 33.1839 19.5093 33.7927 18.9189C34.4016 18.3286 34.4138 17.3537 33.8234 16.7449Z" fill="white"/>
<path d="M49.2049 16.7485C47.8642 15.3647 46.3882 14.6883 44.8384 14.7589C42.4676 14.8542 40.9333 16.6378 40.764 16.8407C40.226 17.4927 40.3182 18.4459 40.964 18.9901C41.6189 19.5344 42.5753 19.4484 43.1256 18.8087C43.1349 18.7994 43.9466 17.8647 44.9768 17.8339C45.6687 17.88 46.296 18.169 46.994 18.8885C47.2954 19.1991 47.6951 19.356 48.098 19.356C48.4824 19.356 48.8699 19.2114 49.1681 18.9224C49.78 18.3321 49.7953 17.3573 49.2049 16.7485Z" fill="white"/>
<path d="M24.2494 69.2411C19.4247 61.9995 15.7779 50.2193 13.982 36.0744C13.8713 35.2319 13.0934 34.6354 12.26 34.743C11.4175 34.8507 10.8209 35.6194 10.9286 36.4619C12.7828 51.068 16.6049 63.3157 21.6879 70.9447C21.9861 71.3905 22.472 71.6304 22.9671 71.6304C23.2623 71.6304 23.5605 71.5474 23.822 71.3721C24.5293 70.9046 24.7199 69.9483 24.2494 69.2411Z" fill="white"/>
<path d="M62.4109 34.743C61.5807 34.6354 60.7966 35.2319 60.6889 36.0744C58.8931 50.2193 55.2462 61.9996 50.4215 69.2411C49.9511 69.9484 50.1448 70.9016 50.8489 71.3721C51.1102 71.5474 51.4054 71.6304 51.7006 71.6304C52.1958 71.6304 52.6815 71.3906 52.9829 70.9447C58.0658 63.3157 61.885 51.068 63.7422 36.4619C63.85 35.6194 63.2504 34.8507 62.4109 34.743Z" fill="white"/>
</g>
<defs>
<clipPath id="clip0">
<rect width="73.7995" height="73.7995" fill="white" transform="translate(0.433594 0.905762)"/>
</clipPath>
</defs>
</svg>
