<svg width="21" height="21" viewBox="0 0 21 21" fill="none" xmlns="http://www.w3.org/2000/svg">
<g clip-path="url(#clip0)">
<path d="M20.0341 19.0085L14.8589 13.916C16.2141 12.4436 17.0468 10.4963 17.0468 8.35346C17.0461 3.76961 13.2706 0.0541992 8.61279 0.0541992C3.95502 0.0541992 0.179443 3.76961 0.179443 8.35346C0.179443 12.9373 3.95502 16.6527 8.61279 16.6527C10.6253 16.6527 12.4711 15.9566 13.9209 14.7994L19.1163 19.912C19.3694 20.1614 19.7804 20.1614 20.0335 19.912C20.2873 19.6627 20.2873 19.2579 20.0341 19.0085ZM8.61279 15.3758C4.67181 15.3758 1.47703 12.2318 1.47703 8.35346C1.47703 4.4751 4.67181 1.33109 8.61279 1.33109C12.5538 1.33109 15.7485 4.4751 15.7485 8.35346C15.7485 12.2318 12.5538 15.3758 8.61279 15.3758Z" fill="white"/>
</g>
<defs>
<clipPath id="clip0">
<rect width="20.0449" height="20.0449" fill="white" transform="translate(0.179688 0.0541992)"/>
</clipPath>
</defs>
</svg>
