<svg width="81" height="53" viewBox="0 0 81 53" fill="none" xmlns="http://www.w3.org/2000/svg">
<path fill-rule="evenodd" clip-rule="evenodd" d="M26.8378 47.7038C15.4598 47.7038 6.12862 38.3496 6.12862 26.677C6.12862 15.0044 15.4598 5.65011 26.8378 5.65011C30.1931 5.65011 33.3705 6.4636 36.183 7.91013C31.3603 12.6705 28.3657 19.3197 28.3657 26.677C28.3657 34.0342 31.3603 40.6834 36.183 45.4438C33.3705 46.8904 30.1931 47.7038 26.8378 47.7038ZM40.548 48.9154C36.5721 51.4324 31.8728 52.8871 26.8378 52.8871C12.5378 52.8871 0.945312 41.1525 0.945312 26.677C0.945312 12.2015 12.5378 0.466797 26.8378 0.466797C31.8728 0.466797 36.5721 1.92158 40.548 4.43856C44.5238 1.92158 49.2232 0.466797 54.2582 0.466797C68.5582 0.466797 80.1507 12.2015 80.1507 26.677C80.1507 41.1525 68.5582 52.8871 54.2582 52.8871C49.2232 52.8871 44.5238 51.4324 40.548 48.9154ZM44.913 7.91013C47.7255 6.4636 50.9029 5.65011 54.2582 5.65011C65.6361 5.65011 74.9674 15.0044 74.9674 26.677C74.9674 38.3496 65.6361 47.7038 54.2582 47.7038C50.9029 47.7038 47.7255 46.8904 44.913 45.4438C49.7357 40.6834 52.7303 34.0342 52.7303 26.677C52.7303 19.3197 49.7357 12.6705 44.913 7.91013ZM40.548 10.9185C44.8331 14.7614 47.547 20.3821 47.547 26.677C47.547 32.9719 44.8331 38.5926 40.548 42.4354C36.2629 38.5926 33.549 32.9719 33.549 26.677C33.549 20.3821 36.2629 14.7614 40.548 10.9185Z" fill="url(#paint0_linear)"/>
<defs>
<linearGradient id="paint0_linear" x1="137.774" y1="3.70929" x2="137.774" y2="49.6447" gradientUnits="userSpaceOnUse">
<stop stop-color="#67FF5A"/>
<stop offset="1" stop-color="#92EE1E" stop-opacity="0.44"/>
</linearGradient>
</defs>
</svg>
